<mxfile host="app.diagrams.net" modified="2024-05-13T08:31:58.021Z" agent="Mozilla/5.0 (Windows NT 10.0; Win64; x64) AppleWebKit/537.36 (KHTML, like Gecko) Chrome/124.0.0.0 Safari/537.36" etag="7q0k7QP9EZGkSFGJud6T" version="24.3.1" type="device">
  <diagram name="第 1 页" id="1fEdcULlBcvoynmrYZV7">
    <mxGraphModel dx="508" dy="306" grid="1" gridSize="10" guides="1" tooltips="1" connect="1" arrows="1" fold="1" page="1" pageScale="1" pageWidth="827" pageHeight="1169" math="1" shadow="0">
      <root>
        <mxCell id="0" />
        <mxCell id="1" parent="0" />
        <mxCell id="vMFoWoRUg4v61Knvj1hs-8" style="edgeStyle=orthogonalEdgeStyle;rounded=0;orthogonalLoop=1;jettySize=auto;html=1;exitX=0;exitY=0.5;exitDx=0;exitDy=0;strokeColor=default;endArrow=none;endFill=0;" parent="1" source="vMFoWoRUg4v61Knvj1hs-1" edge="1">
          <mxGeometry relative="1" as="geometry">
            <mxPoint x="200" y="120" as="targetPoint" />
          </mxGeometry>
        </mxCell>
        <mxCell id="vMFoWoRUg4v61Knvj1hs-1" value="\(20\Omega\)" style="rounded=0;whiteSpace=wrap;html=1;" parent="1" vertex="1">
          <mxGeometry x="280" y="110" width="80" height="20" as="geometry" />
        </mxCell>
        <mxCell id="vMFoWoRUg4v61Knvj1hs-2" value="\(60\Omega\)" style="rounded=0;whiteSpace=wrap;html=1;" parent="1" vertex="1">
          <mxGeometry x="280" y="310" width="80" height="20" as="geometry" />
        </mxCell>
        <mxCell id="vMFoWoRUg4v61Knvj1hs-3" value="\(50\Omega\)" style="rounded=0;whiteSpace=wrap;html=1;rotation=90;" parent="1" vertex="1">
          <mxGeometry x="397.5" y="202.5" width="65" height="20" as="geometry" />
        </mxCell>
        <mxCell id="vMFoWoRUg4v61Knvj1hs-4" value="\(60\Omega\)" style="rounded=0;whiteSpace=wrap;html=1;rotation=-45;" parent="1" vertex="1">
          <mxGeometry x="250" y="260" width="80" height="20" as="geometry" />
        </mxCell>
        <mxCell id="vMFoWoRUg4v61Knvj1hs-6" value="\(20\Omega\)" style="rounded=0;whiteSpace=wrap;html=1;rotation=45;" parent="1" vertex="1">
          <mxGeometry x="250" y="160" width="80" height="20" as="geometry" />
        </mxCell>
        <mxCell id="vMFoWoRUg4v61Knvj1hs-10" value="" style="endArrow=none;html=1;rounded=0;entryX=0;entryY=0.5;entryDx=0;entryDy=0;" parent="1" target="vMFoWoRUg4v61Knvj1hs-6" edge="1">
          <mxGeometry width="50" height="50" relative="1" as="geometry">
            <mxPoint x="240" y="120" as="sourcePoint" />
            <mxPoint x="370" y="190" as="targetPoint" />
          </mxGeometry>
        </mxCell>
        <mxCell id="vMFoWoRUg4v61Knvj1hs-11" value="" style="endArrow=none;html=1;rounded=0;entryX=0;entryY=0.5;entryDx=0;entryDy=0;" parent="1" target="vMFoWoRUg4v61Knvj1hs-4" edge="1">
          <mxGeometry width="50" height="50" relative="1" as="geometry">
            <mxPoint x="240" y="320" as="sourcePoint" />
            <mxPoint x="262" y="330" as="targetPoint" />
          </mxGeometry>
        </mxCell>
        <mxCell id="vMFoWoRUg4v61Knvj1hs-12" style="edgeStyle=orthogonalEdgeStyle;rounded=0;orthogonalLoop=1;jettySize=auto;html=1;exitX=0;exitY=0.5;exitDx=0;exitDy=0;strokeColor=default;endArrow=none;endFill=0;" parent="1" edge="1">
          <mxGeometry relative="1" as="geometry">
            <mxPoint x="200" y="319.8" as="targetPoint" />
            <mxPoint x="280" y="319.8" as="sourcePoint" />
          </mxGeometry>
        </mxCell>
        <mxCell id="vMFoWoRUg4v61Knvj1hs-13" value="" style="endArrow=none;html=1;rounded=0;exitX=1;exitY=0.5;exitDx=0;exitDy=0;" parent="1" source="vMFoWoRUg4v61Knvj1hs-6" edge="1">
          <mxGeometry width="50" height="50" relative="1" as="geometry">
            <mxPoint x="320" y="200" as="sourcePoint" />
            <mxPoint x="330" y="210" as="targetPoint" />
          </mxGeometry>
        </mxCell>
        <mxCell id="vMFoWoRUg4v61Knvj1hs-15" value="" style="endArrow=none;html=1;rounded=0;" parent="1" source="vMFoWoRUg4v61Knvj1hs-4" edge="1">
          <mxGeometry width="50" height="50" relative="1" as="geometry">
            <mxPoint x="320" y="240" as="sourcePoint" />
            <mxPoint x="430" y="120" as="targetPoint" />
          </mxGeometry>
        </mxCell>
        <mxCell id="vMFoWoRUg4v61Knvj1hs-16" value="" style="endArrow=none;html=1;rounded=0;" parent="1" edge="1">
          <mxGeometry width="50" height="50" relative="1" as="geometry">
            <mxPoint x="360" y="120" as="sourcePoint" />
            <mxPoint x="430" y="120" as="targetPoint" />
          </mxGeometry>
        </mxCell>
        <mxCell id="vMFoWoRUg4v61Knvj1hs-17" value="" style="endArrow=none;html=1;rounded=0;" parent="1" edge="1">
          <mxGeometry width="50" height="50" relative="1" as="geometry">
            <mxPoint x="430" y="119.8" as="sourcePoint" />
            <mxPoint x="430" y="180" as="targetPoint" />
          </mxGeometry>
        </mxCell>
        <mxCell id="vMFoWoRUg4v61Knvj1hs-18" value="" style="endArrow=none;html=1;rounded=0;entryX=0.5;entryY=0;entryDx=0;entryDy=0;exitX=1;exitY=0.5;exitDx=0;exitDy=0;" parent="1" source="vMFoWoRUg4v61Knvj1hs-3" edge="1">
          <mxGeometry width="50" height="50" relative="1" as="geometry">
            <mxPoint x="429.90000000000003" y="250" as="sourcePoint" />
            <mxPoint x="429.90000000000003" y="320.2" as="targetPoint" />
          </mxGeometry>
        </mxCell>
        <mxCell id="vMFoWoRUg4v61Knvj1hs-20" value="" style="endArrow=none;html=1;rounded=0;exitX=1;exitY=0.5;exitDx=0;exitDy=0;" parent="1" source="vMFoWoRUg4v61Knvj1hs-2" edge="1">
          <mxGeometry width="50" height="50" relative="1" as="geometry">
            <mxPoint x="380" y="300" as="sourcePoint" />
            <mxPoint x="430" y="320" as="targetPoint" />
          </mxGeometry>
        </mxCell>
        <mxCell id="vMFoWoRUg4v61Knvj1hs-21" value="" style="endArrow=none;html=1;rounded=0;" parent="1" edge="1">
          <mxGeometry width="50" height="50" relative="1" as="geometry">
            <mxPoint x="350" y="230" as="sourcePoint" />
            <mxPoint x="430" y="320" as="targetPoint" />
          </mxGeometry>
        </mxCell>
        <mxCell id="vMFoWoRUg4v61Knvj1hs-23" value="" style="curved=1;endArrow=none;html=1;rounded=0;endFill=0;" parent="1" edge="1">
          <mxGeometry width="50" height="50" relative="1" as="geometry">
            <mxPoint x="350" y="230" as="sourcePoint" />
            <mxPoint x="330" y="210" as="targetPoint" />
            <Array as="points">
              <mxPoint x="350" y="210" />
            </Array>
          </mxGeometry>
        </mxCell>
        <mxCell id="vMFoWoRUg4v61Knvj1hs-25" value="\(A\)" style="text;html=1;align=center;verticalAlign=middle;whiteSpace=wrap;rounded=0;" parent="1" vertex="1">
          <mxGeometry x="150" y="105" width="60" height="30" as="geometry" />
        </mxCell>
        <mxCell id="vMFoWoRUg4v61Knvj1hs-26" value="\(B\)" style="text;html=1;align=center;verticalAlign=middle;whiteSpace=wrap;rounded=0;" parent="1" vertex="1">
          <mxGeometry x="150" y="305" width="60" height="30" as="geometry" />
        </mxCell>
      </root>
    </mxGraphModel>
  </diagram>
</mxfile>
